<?xml version="1.0" encoding="UTF-8" standalone="no"?>
<svg
   width="70.642586"
   height="70.664909"
   viewBox="0 0 70.642586 70.664909"
   fill="none"
   version="1.1"
   id="svg215"
   sodipodi:docname="logo.5db4d01a.svg"
   inkscape:version="1.2.2 (b0a8486541, 2022-12-01)"
   xmlns:inkscape="http://www.inkscape.org/namespaces/inkscape"
   xmlns:sodipodi="http://sodipodi.sourceforge.net/DTD/sodipodi-0.dtd"
   xmlns="http://www.w3.org/2000/svg"
   xmlns:svg="http://www.w3.org/2000/svg">
  <sodipodi:namedview
     id="namedview217"
     pagecolor="#ffffff"
     bordercolor="#666666"
     borderopacity="1.0"
     inkscape:showpageshadow="2"
     inkscape:pageopacity="0.0"
     inkscape:pagecheckerboard="0"
     inkscape:deskcolor="#d1d1d1"
     showgrid="false"
     inkscape:zoom="9.3030303"
     inkscape:cx="99"
     inkscape:cy="35.526059"
     inkscape:window-width="2534"
     inkscape:window-height="1322"
     inkscape:window-x="12"
     inkscape:window-y="80"
     inkscape:window-maximized="1"
     inkscape:current-layer="svg215" />
  <g
     clip-path="url(#clip0)"
     id="g192"
     style="fill:#ffffff">
    <path
       d="m 29.6059,69.9131 c -1.3117,-1.2962 -8.8053,-2.9877 -9.6292,-2.1735 -1.1061,1.0931 -2.1533,0.865 -1.6757,-0.365 C 18.7733,66.1584 10.8016,58.0767 9.1052,58.0518 8.47768,58.0425 8.26217,57.5745 8.54735,56.84 8.80294,56.1818 8.6566,54.3388 8.22215,52.7444 7.53451,50.2208 7.14911,49.8455 5.24513,49.8455 c -3.04164,0 -3.58999,-1.3407 -0.66552,-1.6272 1.90533,-0.1867 2.44221,-0.6136 2.63579,-2.096 0.13368,-1.024 0.40032,-2.7288 0.59249,-3.7886 0.30877,-1.703 0.02592,-2.0059 -2.4331,-2.6063 -1.53037,-0.3737 -2.66382,-1.0145 -2.51876,-1.4241 0.14505,-0.4095 0.49048,-0.6867 0.76759,-0.6159 4.69332,1.1992 4.26094,1.5588 5.653,-4.7017 1.43668,-6.461 3.46408,-9.6429 7.51928,-11.801 2.276,-1.2113 2.6344,-1.7348 2.2791,-3.3292 C 18.0847,13.4111 18.6897,13.6657 9.19697,13.6988 -1.54122,13.7362 -2.11743,13.1003 3.56597,7.4839 8.54277,2.5658 12.725,0.557968 18.9058,0.119503 c 4.4083,-0.312714 5.5144,-0.1032933 9.2058,1.743917 2.3076,1.15463 4.3611,2.52558 4.5634,3.04654 0.4668,1.20205 -3.3467,3.91395 -8.2211,5.84634 -3.7304,1.4789 -3.7675,1.5261 -3.5119,4.468 0.3523,4.0536 0.5921,4.2784 4.1565,3.8957 4.4904,-0.4821 16.2289,1.4945 19.215,3.2356 1.4031,0.8181 2.6167,1.39 2.6968,1.271 1.7128,-2.5448 3.4321,-6.2115 3.4321,-7.3191 0,-0.8681 0.6681,-1.5935 1.6955,-1.8412 1.9036,-0.4588 16.9388,0.6748 17.5987,1.3269 0.2336,0.2308 0.6009,1.7179 0.8163,3.3046 0.4996,3.6806 -1.1327,5.4085 -3.7842,4.0062 -0.9391,-0.4967 -3.8482,-0.9661 -6.4646,-1.0431 -4.3834,-0.1289 -4.8802,0.0197 -6.3235,1.9042 l -1.5664,2.0443 1.891,2.0513 c 3.4889,3.7847 4.3613,5.9162 4.8494,11.8486 0.2642,3.2124 0.8689,6.0787 1.3437,6.3697 0.6013,0.3685 0.4673,0.8205 -0.4417,1.4893 -0.7177,0.5281 -1.5253,2.0687 -1.7947,3.4235 -0.4179,2.1013 -0.2533,2.5244 1.1202,2.8793 0.8855,0.2289 1.61,0.7185 1.61,1.0881 0,0.3696 -0.8199,0.4686 -1.822,0.2201 -2.2425,-0.5562 -4.1362,2.0635 -2.715,3.7558 0.5807,0.6914 0.5969,1.153 0.0523,1.4856 -0.4346,0.2655 -0.7901,0.2369 -0.7901,-0.0635 0,-0.8629 -3.7646,2.8596 -3.7953,3.7528 -0.0151,0.4406 -1.6258,1.8063 -3.5793,3.035 -3.1817,2.0012 -4.1981,2.2389 -9.7539,2.2815 -3.4111,0.0262 -6.4347,0.2774 -6.7191,0.5585 -0.7217,0.7132 -1.3424,0.6387 -2.2638,-0.2719 z M 41.9024,66.545 c 0.3019,-0.7775 1.0161,-1.0333 2.1198,-0.7596 2.453,0.6084 5.3468,-2.5777 4.2242,-4.6508 -1.1268,-2.0805 -1.0243,-3.0978 0.3122,-3.0978 0.643,0 1.1303,0.6688 1.1303,1.5514 0,0.9112 0.3887,1.4225 0.9419,1.239 0.5181,-0.1718 0.9445,-0.8949 0.9477,-1.6069 0.0031,-0.712 0.5965,-1.6214 1.3187,-2.0207 0.7221,-0.3994 1.313,-1.4957 1.313,-2.4364 0,-0.9406 0.5523,-2.8043 1.2273,-4.1415 1.033,-2.0462 1.0628,-2.5452 0.1884,-3.1498 -0.8033,-0.5555 -0.8253,-0.804 -0.097,-1.0961 0.8113,-0.3253 1.4329,-5.4662 0.6609,-5.4662 -0.1545,0 -1.84,0.6815 -3.7455,1.5145 -3.2559,1.4233 -4.1124,1.4689 -14.2273,0.759 -5.9195,-0.4154 -12.5911,-1.2919 -14.8257,-1.9476 -4.1622,-1.2215 -9.8726,-4.4822 -9.8726,-5.6374 0,-0.3552 -0.315,-0.6457 -0.7001,-0.6457 -0.8555,0 -3.06762,7.2729 -3.06762,10.0854 0,1.1205 0.59342,2.4824 1.31872,3.0265 0.8053,0.6041 0.952,0.9984 0.3768,1.0129 -1.053,0.0265 -1.2522,2.8555 -0.305,4.3307 0.3384,0.527 1.1785,0.7419 1.8723,0.4788 1.3525,-0.5129 1.7621,0.7759 0.4929,1.5511 -1.1027,0.6735 1.1392,4.1218 3.973,6.1109 1.7765,1.247 2.5972,1.4485 3.3578,0.8247 0.5536,-0.454 1.0832,-0.694 1.1768,-0.5333 0.0936,0.1608 0.5372,0.9484 0.9858,1.7502 1.1658,2.0839 5.6253,3.1259 6.7681,1.5814 1.1397,-1.5402 1.5783,-1.4855 2.0387,0.254 0.5851,2.2112 9.2965,3.177 10.0955,1.1193 z m -9.5451,-7.3292 c 0,-0.6485 0.5369,-1.179 1.1931,-1.179 0.6563,0 1.0589,0.3979 0.8949,0.8843 -0.4658,1.3807 -2.088,1.6097 -2.088,0.2947 z m -4.7096,-7.2811 c 0.9095,-0.8987 1.8809,-1.4095 2.1587,-1.135 0.7331,0.7245 -1.1916,2.7691 -2.6068,2.7691 -0.9689,0 -0.8809,-0.3208 0.4481,-1.6341 z M 42.907,51.2909 c 0,-1.329 0.3139,-2.0862 0.7535,-1.8177 0.4145,0.2532 0.7536,1.2782 0.7536,2.2779 0,0.9998 -0.3391,1.8177 -0.7536,1.8177 -0.4144,0 -0.7535,-1.025 -0.7535,-2.2779 z m -26.6874,0.1455 c -0.5781,-0.9243 2.3174,-3.3248 3.2923,-2.7293 0.4473,0.2732 0.6193,0.8068 0.3823,1.1859 -0.7317,1.1698 -3.2474,2.2265 -3.6746,1.5434 z m -3.4544,-5.1946 c 0,-1.1168 3.9249,-2.496 4.7586,-1.6722 0.5131,0.5071 0.0909,1.0046 -1.294,1.525 -2.4902,0.9355 -3.4646,0.9769 -3.4646,0.1472 z m 21.0992,-6.0952 c 0,-1.0685 -2.6475,-1.9163 -7.7887,-2.4941 -4.8909,-0.5497 -8.3654,-2.0239 -9.0747,-3.8505 -1.0955,-2.821 -0.4733,-6.1841 1.4157,-7.6525 2.0404,-1.586 2.479,-3.1116 0.8946,-3.1116 -1.7415,0 -4.9816,4.0332 -5.1665,6.431 -0.3684,4.7782 4.2941,8.3121 13.6913,10.3773 5.3832,1.1831 6.0283,1.2152 6.0283,0.3004 z m 9.2137,-6.9492 1.9009,-5.4783 -3.928,-1.2237 c -4.7639,-1.4839 -15.351,-1.65 -17.2599,-0.2707 -1.0872,0.7856 -1.1786,1.3172 -0.5208,3.0271 0.4389,1.1408 0.798,3.0203 0.798,4.1768 0,2.2949 0.3062,2.412 9.0426,3.4567 2.2795,0.2725 4.6531,0.7767 5.2748,1.1203 2.2113,1.2222 2.8143,0.6043 4.6924,-4.8083 z m 1.7127,4.9084 c 0.6458,-0.4688 2.0885,-3.6239 6.6303,-14.4991 0.5961,-1.4273 0.6132,-2.2723 0.057,-2.8219 -0.9409,-0.9298 -4.8097,5.8309 -7.0981,12.4037 -1.9189,5.5116 -1.8325,6.546 0.4108,4.9173 z m 9.8271,-0.2243 c 0.811,-1.2968 -0.1126,-1.5714 -1.1462,-0.3408 -0.5943,0.7077 -0.6515,1.135 -0.1518,1.135 0.4407,0 1.0248,-0.3574 1.298,-0.7942 z M 51.196,34.9701 c 0,-1.5032 -1.18,-2.668 -1.7276,-1.7054 -0.1786,0.3139 -0.552,1.5098 -0.8299,2.6575 -0.465,1.9206 -0.3832,2.0223 1.0261,1.277 0.8423,-0.4455 1.5314,-1.4485 1.5314,-2.2291 z m 1.9381,-4.2666 c -1.066,-1.136 -1.9381,-1.6501 -1.9381,-1.1423 0,0.5078 0.2846,0.9232 0.6326,0.9232 0.3479,0 1.0705,0.9215 1.6059,2.0478 0.5361,1.1281 1.1225,1.6411 1.3055,1.1423 0.1827,-0.498 -0.5399,-1.835 -1.6059,-2.971 z m -31.9369,0.1533 c -0.3046,-2.5784 -1.2401,-3.4497 -1.829,-1.7036 -0.51,1.5117 0.2988,4.3099 1.2457,4.3099 0.5748,0 0.7819,-0.9254 0.5833,-2.6063 z m 10.2422,-7.8189 c 6.9266,0 7.9929,-1.2585 1.2947,-1.5282 -7.8168,-0.3147 -10.1729,-0.0287 -10.1729,1.2355 0,0.7852 0.4098,1.0412 1.192,0.7447 0.6556,-0.2486 4.1143,-0.452 7.6862,-0.452 z m 9.7564,0.2947 c -0.2504,-0.2474 -0.9003,-0.2738 -1.4443,-0.0588 -0.6011,0.2378 -0.4226,0.4142 0.4553,0.4499 0.7943,0.0323 1.2394,-0.1436 0.989,-0.3911 z m 23.1334,-3.6989 c 1.8521,-1.8302 1.4584,-3.2964 -0.8881,-3.3079 -1.1397,-0.0057 -2.8352,-0.2122 -3.7677,-0.4592 -1.487,-0.3938 -1.6955,-0.1698 -1.6955,1.8223 0,1.9062 0.3331,2.3213 2.0722,2.5816 1.1398,0.1706 2.3024,0.3604 2.5836,0.4218 0.2813,0.0614 1.0442,-0.415 1.6955,-1.0586 z m 4.1983,0.0971 c 0,-0.1807 -0.3391,-0.5355 -0.7535,-0.7886 -0.4145,-0.2531 -0.7535,-0.1053 -0.7535,0.3284 0,0.4337 0.339,0.7886 0.7535,0.7886 0.4144,0 0.7535,-0.1478 0.7535,-0.3284 z M 9.75098,11.4659 c 0,-0.6306 0.70182,-2.50614 1.55962,-4.16776 0.8579,-1.66163 1.3821,-3.19661 1.1651,-3.41108 -0.444,-0.43874 -5.33697,3.24112 -7.59281,5.7103 -1.2588,1.37784 -1.31448,1.71844 -0.37677,2.30464 1.82499,1.1407 5.24486,0.8564 5.24486,-0.4361 z m 9.04252,-0.6514 c 1.4506,-0.517 2.7473,-1.49782 2.8815,-2.17954 0.3307,-1.67939 -3.9429,-5.8252 -5.4253,-5.26307 -1.1609,0.44021 -4.2381,5.9687 -4.2381,7.61411 0,1.1262 3.3812,1.0407 6.7819,-0.1714 z M 27.265,7.27132 C 29.9835,5.97107 29.8813,4.95074 26.8911,3.54166 23.931,2.14676 19.5471,1.1277 19.5471,1.83452 c 0,0.2806 0.8477,1.50576 1.8838,2.72262 1.0362,1.21683 1.8839,2.72521 1.8839,3.35196 0,1.15846 0.294,1.11101 3.9502,-0.63778 z"
       fill="#1c2541"
       id="path190"
       style="fill:#ffffff" />
  </g>
  <defs
     id="defs213">
    <clipPath
       id="clip0">
      <rect
         width="71"
         height="71"
         fill="#ffffff"
         id="rect210"
         x="0"
         y="0" />
    </clipPath>
  </defs>
</svg>
